<svg width="15" height="17" viewBox="0 0 15 17" fill="none" xmlns="http://www.w3.org/2000/svg">
<path d="M13.5149 0H1.48515C0.666337 0 0 0.665323 0 1.48289V11.5171C0 12.3347 0.666337 13 1.48515 13H13.5149C14.3337 13 15 12.3347 15 11.5171V1.48289C15 0.665323 14.3337 0 13.5149 0Z" fill="#1B97FF"/>
<path d="M11.2895 15.4211H9.72632V14H5.27368V15.4211H3.71053C3.31832 15.4211 3 15.7747 3 16.2105C3 16.6463 3.31832 17 3.71053 17H11.2895C11.6817 17 12 16.6463 12 16.2105C12 15.7747 11.6817 15.4211 11.2895 15.4211Z" fill="#1B97FF"/>
</svg>
