<svg width="15" height="15" viewBox="0 0 15 15" fill="none" xmlns="http://www.w3.org/2000/svg">
<path d="M10.1491 4.8477C9.93703 4.63557 9.65437 4.51881 9.35323 4.51904C8.74305 4.51939 8.22834 5.00859 8.22852 5.64337C8.2286 5.94455 8.34542 6.22726 8.5575 6.43928C8.99638 6.87816 9.70972 6.87878 10.1477 6.44077C10.5873 6.00115 10.588 5.28653 10.1491 4.8477V4.8477Z" fill="#333333"/>
<path d="M15 0L14.5604 0.0004102C11.4154 0.0033988 8.33397 1.32714 6.10541 3.63276L1.7373 8.00084L6.99631 13.2598L11.3642 8.89197C12.4632 7.83272 13.374 6.52652 13.9983 5.11449C15.1817 2.43805 14.9743 0.274776 15 0V0ZM7.93722 7.05987C7.15535 6.27791 7.15555 5.0089 7.93578 4.22875C8.71792 3.44656 9.98702 3.44457 10.7698 4.22732C11.5507 5.00822 11.5501 6.27964 10.7684 7.06136C9.98831 7.84142 8.71827 7.84071 7.93722 7.05987Z" fill="#333333"/>
<path d="M0.0185547 14.355L2.30204 12.0715L2.92244 12.6919L0.638952 14.9754L0.0185547 14.355Z" fill="#333333"/>
<path d="M2.74658 14.1426L3.5646 13.3246L4.18498 13.9449L3.36696 14.763L2.74658 14.1426Z" fill="#333333"/>
<path d="M0.230957 11.6274L1.04407 10.8143L1.6644 11.4347L0.851291 12.2478L0.230957 11.6274Z" fill="#333333"/>
<path d="M11.4163 10.5297L11.1918 10.3052L7.6167 13.8803L8.73112 14.9947L10.7119 13.0139L11.4163 10.5297Z" fill="#333333"/>
<path d="M1.98097 4.28239L0 6.26339L1.11677 7.38025L4.69193 3.80506L4.46743 3.58057L1.98097 4.28239Z" fill="#333333"/>
<path d="M1.02148 9.78462L5.2125 13.9757L6.07143 13.5757L1.4214 8.92578L1.02148 9.78462Z" fill="#333333"/>
</svg>
