<svg width="15" height="14" viewBox="0 0 15 14" fill="none" xmlns="http://www.w3.org/2000/svg">
<path d="M14.7975 6.4354L8.9935 0.631136C8.15169 -0.210379 6.78251 -0.210379 5.94071 0.631136L0.136728 6.4354C-0.045576 6.61771 -0.045576 6.91319 0.136728 7.09549C0.31874 7.27779 0.614511 7.27779 0.796523 7.09549L1.16667 6.72534V12.6582C1.16667 13.3993 1.7674 14 2.50843 14H4.84192C5.00302 14 5.13361 13.8694 5.13361 13.7083V9.39135C5.13361 8.58589 5.78658 7.93292 6.59204 7.93292H8.34216C9.14762 7.93292 9.80059 8.58589 9.80059 9.39135V13.7083C9.80059 13.8694 9.93118 14 10.0923 14H12.4258C13.1668 14 13.7675 13.3993 13.7675 12.6582V6.72534L14.1377 7.09549C14.2287 7.1865 14.3483 7.23229 14.4676 7.23229C14.5869 7.23229 14.7065 7.1865 14.7975 7.09549C14.9798 6.91319 14.9798 6.61771 14.7975 6.4354V6.4354Z" fill="#333333"/>
</svg>
