<svg width="231" height="166" viewBox="0 0 231 166" fill="none" xmlns="http://www.w3.org/2000/svg">
<path d="M231 151.259H0V151.374H231V151.259Z" fill="#EBEBEB"/>
<path d="M207.854 158.692H172.017V158.808H207.854V158.692Z" fill="#EBEBEB"/>
<path d="M153.998 157.075H128.436V157.191H153.998V157.075Z" fill="#EBEBEB"/>
<path d="M192.09 154.405H164.823V154.521H192.09V154.405Z" fill="#EBEBEB"/>
<path d="M30.0991 155.181H24.2363V155.297H30.0991V155.181Z" fill="#EBEBEB"/>
<path d="M67.2996 155.181H34.2158V155.297H67.2996V155.181Z" fill="#EBEBEB"/>
<path d="M101.64 157.131H80V157.246H101.64V157.131Z" fill="#EBEBEB"/>
<path d="M109.494 130.654H20.2862C19.5874 130.652 18.9176 130.374 18.4239 129.879C17.9301 129.385 17.6528 128.714 17.6528 128.016V2.61492C17.6589 1.92008 17.9389 1.25571 18.432 0.766097C18.925 0.276488 19.5914 0.00119029 20.2862 0H109.494C110.193 0 110.864 0.277934 111.359 0.772658C111.854 1.26738 112.132 1.93837 112.132 2.63802V128.016C112.132 128.715 111.854 129.386 111.359 129.881C110.864 130.376 110.193 130.654 109.494 130.654V130.654ZM20.2862 0.0924004C19.618 0.0936242 18.9776 0.359928 18.5055 0.83286C18.0335 1.30579 17.7683 1.94671 17.7683 2.61492V128.016C17.7683 128.684 18.0335 129.325 18.5055 129.798C18.9776 130.271 19.618 130.537 20.2862 130.538H109.494C110.162 130.537 110.803 130.271 111.276 129.798C111.749 129.325 112.015 128.684 112.016 128.016V2.61492C112.015 1.94628 111.749 1.30538 111.276 0.832578C110.803 0.359778 110.162 0.0936216 109.494 0.0924004H20.2862Z" fill="#EBEBEB"/>
<path d="M209.429 130.654H120.217C119.518 130.652 118.848 130.374 118.353 129.88C117.859 129.385 117.58 128.715 117.579 128.016V2.61492C117.586 1.91966 117.867 1.25529 118.361 0.765808C118.855 0.276326 119.522 0.00117731 120.217 0H209.429C210.123 0.00240448 210.789 0.278239 211.281 0.767718C211.773 1.2572 212.052 1.92088 212.058 2.61492V128.016C212.058 128.714 211.781 129.383 211.289 129.878C210.796 130.372 210.127 130.651 209.429 130.654V130.654ZM120.217 0.0924004C119.548 0.0936216 118.908 0.359778 118.435 0.832578C117.962 1.30538 117.696 1.94628 117.695 2.61492V128.016C117.696 128.684 117.962 129.325 118.435 129.798C118.908 130.271 119.548 130.537 120.217 130.538H209.429C210.098 130.537 210.739 130.271 211.212 129.798C211.684 129.325 211.951 128.684 211.952 128.016V2.61492C211.951 1.94628 211.684 1.30538 211.212 0.832578C210.739 0.359778 210.098 0.0936216 209.429 0.0924004H120.217Z" fill="#EBEBEB"/>
<path d="M194.53 45.5488H82.3608C79.2173 45.5488 76.6689 48.0972 76.6689 51.2407V120.347C76.6689 123.49 79.2173 126.038 82.3608 126.038H194.53C197.673 126.038 200.222 123.49 200.222 120.347V51.2407C200.222 48.0972 197.673 45.5488 194.53 45.5488Z" fill="#FAFAFA"/>
<path d="M200.161 122.823H198.711V122.361H200.134L200.161 122.823ZM197.288 122.823H195.888V122.361H197.274L197.288 122.823ZM194.446 122.823H193.023V122.361H194.446V122.823ZM191.6 122.823H190.177V122.361H191.6V122.823ZM188.755 122.823H187.336V122.361H188.755V122.823ZM185.913 122.823H184.49V122.361H185.913V122.823ZM183.067 122.823H181.649V122.361H183.067V122.823ZM180.226 122.823H178.794V122.361H180.217L180.226 122.823ZM177.38 122.823H175.962V122.361H177.38V122.823ZM174.539 122.823H173.116V122.361H174.539V122.823ZM171.693 122.823H170.275V122.361H171.693V122.823ZM168.852 122.823H167.429V122.361H168.852V122.823ZM166.006 122.823H164.587V122.361H166.006V122.823ZM163.164 122.823H161.741V122.361H163.164V122.823ZM160.318 122.823H158.9V122.361H160.314L160.318 122.823ZM157.477 122.823H156.054V122.361H157.477V122.823ZM154.631 122.823H153.213V122.361H154.631V122.823ZM151.79 122.823H150.367V122.361H151.79V122.823ZM148.944 122.823H147.526V122.361H148.944V122.823ZM146.103 122.823H144.68V122.361H146.103V122.823ZM143.257 122.823H141.834V122.361H143.252L143.257 122.823ZM140.415 122.823H138.992V122.361H140.415V122.823ZM137.57 122.823H136.147V122.361H137.57V122.823ZM134.728 122.823H133.305V122.361H134.728V122.823ZM131.882 122.823H130.459V122.361H131.882V122.823ZM129.041 122.823H127.618V122.361H129.041V122.823ZM126.195 122.823H124.772V122.361H126.195V122.823ZM123.354 122.823H121.931V122.361H123.354V122.823ZM120.508 122.823H119.085V122.361H120.508V122.823ZM117.667 122.823H116.244V122.361H117.667V122.823ZM114.821 122.823H113.398V122.361H114.821V122.823ZM111.979 122.823H110.556V122.361H111.979V122.823ZM109.133 122.823H107.71V122.361H109.133V122.823ZM106.292 122.823H104.874V122.361H106.297L106.292 122.823ZM103.446 122.823H102.023V122.361H103.446V122.823ZM100.605 122.823H99.1819V122.361H100.605V122.823ZM97.759 122.823H96.336V122.361H97.759V122.823ZM94.9177 122.823H93.4947V122.361H94.9177V122.823ZM92.0718 122.823H90.6488V122.361H92.0718V122.823ZM89.2305 122.823H87.8075V122.361H89.2305V122.823ZM86.3845 122.823H84.9616V122.361H86.3938L86.3845 122.823ZM83.5386 122.823H82.1203V122.361H83.5386V122.823ZM80.6973 122.823H79.2744V122.361H80.6973V122.823ZM77.8514 122.823H76.4331V122.361H77.8514V122.823ZM75.0101 122.823H73.5871V122.361H75.0101V122.823ZM72.1642 122.823H70.7459V122.361H72.1642V122.823ZM69.3229 122.823H68.9579C68.5929 122.823 68.2284 122.795 67.8676 122.74L67.9415 122.278C68.2779 122.329 68.6176 122.355 68.9579 122.356H69.3229V122.823ZM201.621 122.666L201.52 122.204C201.967 122.106 202.404 121.964 202.822 121.779L203.016 122.213C202.567 122.409 202.1 122.561 201.621 122.666V122.666ZM66.4493 122.361C65.9903 122.187 65.5506 121.965 65.1372 121.7L65.3959 121.298C65.7809 121.548 66.1913 121.755 66.6202 121.917L66.4493 122.361ZM204.287 121.469L204.005 121.086C204.378 120.814 204.722 120.505 205.031 120.162L205.382 120.485C205.051 120.849 204.684 121.179 204.287 121.469V121.469ZM63.9914 120.786C63.6453 120.441 63.3356 120.062 63.0674 119.654L63.4601 119.39C63.7153 119.771 64.0095 120.124 64.3379 120.444L63.9914 120.786ZM206.255 119.312L205.844 119.072C206.077 118.676 206.269 118.258 206.417 117.824L206.879 117.977C206.719 118.442 206.51 118.89 206.255 119.312V119.312ZM62.3698 118.36C62.1861 117.904 62.0513 117.43 61.9679 116.946L62.4299 116.863C62.5072 117.315 62.6343 117.756 62.8087 118.18L62.3698 118.36ZM207.193 116.544L206.731 116.489C206.76 116.233 206.776 115.975 206.777 115.717V115.098H207.239V115.717C207.238 115.994 207.221 116.27 207.188 116.544H207.193ZM62.3282 115.5H61.8662V114.068H62.3282V115.5ZM207.235 113.685H206.773V112.266H207.235V113.685ZM62.3282 112.654H61.8662V111.236H62.3282V112.654ZM207.235 110.843H206.773V109.42H207.235V110.843ZM62.3282 109.813H61.8662V108.39H62.3282V109.813ZM207.235 107.997H206.773V106.579H207.235V107.997ZM62.3282 106.967H61.8662V105.549H62.3282V106.967ZM207.235 105.156H206.773V103.733H207.235V105.156ZM62.3282 104.126H61.8662V102.703H62.3282V104.126ZM207.235 102.31H206.773V100.887H207.235V102.31ZM62.3282 101.271H61.8662V99.8523H62.3282V101.271ZM207.235 99.4596H206.773V98.0367H207.235V99.4596ZM62.3282 98.4294H61.8662V97.0203H62.3282V98.4294ZM207.235 96.6137H206.773V95.1723H207.235V96.6137ZM62.3282 95.5834H61.8662V94.1651H62.3282V95.5834ZM207.235 93.7863H206.773V92.3633H207.235V93.7863ZM62.3282 92.756H61.8662V91.333H62.3282V92.756ZM207.235 90.9403H206.773V89.5174H207.235V90.9403ZM62.3282 89.9101H61.8662V88.4917H62.3282V89.9101ZM207.235 88.099H206.773V86.6761H207.235V88.099ZM62.3282 87.0688H61.8662V85.6458H62.3282V87.0688ZM207.235 85.2531H206.773V83.8302H207.235V85.2531ZM62.3282 84.2229H61.8662V82.7907H62.3282V84.2229ZM207.235 82.4118H206.773V80.9889H207.235V82.4118ZM62.3282 81.3816H61.8662V79.9263H62.3282V81.3816ZM207.235 79.5659H206.773V78.1429H207.235V79.5659ZM62.3282 78.5403H61.8662V77.1173H62.3282V78.5403ZM207.235 76.6923H206.773V75.3063H207.235V76.6923ZM62.3282 75.662H61.8662V74.239H62.3282V75.662ZM207.235 73.8463H206.773V72.4419H207.235V73.8463ZM62.3282 72.8161H61.8662V71.3931H62.3282V72.8161ZM207.235 71.005H206.773V69.5821H207.235V71.005ZM62.3282 69.9933H61.8662V68.5703H62.3282V69.9933ZM207.235 68.1776H206.773V66.7546H207.235V68.1776ZM62.3282 67.1473H61.8662V65.7244H62.3282V67.1473ZM207.235 65.3317H206.773V63.9133H207.235V65.3317ZM62.3282 64.306H61.8662V62.8831H62.3282V64.306ZM207.235 62.4904H206.773V61.0674H207.235V62.4904ZM62.3282 61.4463H61.8662V60.0603H62.3282V61.4463ZM207.235 59.6306H206.773V58.2123H207.235V59.6306ZM62.3282 58.605H61.8662V57.1959H62.3282V58.605ZM207.235 56.8263H206.773V55.4033H207.235V56.8263ZM62.3282 55.796H61.8662V54.373H62.3282V55.796ZM207.235 53.9803H206.773V52.562H207.235V53.9803ZM62.3282 52.9547H61.8662V51.5317H62.3282V52.9547ZM207.235 51.139H206.773V49.7161H207.235V51.139ZM62.3282 50.1088H61.8662V48.6858H62.3282V50.1088ZM207.235 48.2931H206.773V46.8748H207.235V48.2931ZM62.3282 47.2675H61.8662V45.8445H62.3282V47.2675ZM207.235 45.4518H206.773V44.0289H207.235V45.4518ZM62.3282 44.3985H61.8662V42.9663H62.3282V44.3985ZM207.235 42.5828H206.773V41.1645H207.235V42.5828ZM62.3282 41.5803H61.8662V40.1573H62.3282V41.5803ZM207.235 39.7323H206.773V38.3093H207.235V39.7323ZM62.3282 38.702H61.8662V37.279H62.3282V38.702ZM207.235 36.8863H206.773V35.468H207.235V36.8863ZM62.3282 35.8607H61.8662V34.4377H62.3282V35.8607ZM207.235 34.045H206.773V32.6221H207.235V34.045ZM62.3282 33.0148H61.8662V31.6011H62.3282V33.0148ZM207.235 31.1991H206.773V29.7808H207.235V31.1991ZM62.3282 30.1735H61.8662V29.5683C61.8669 29.2857 61.8839 29.0034 61.917 28.7228L62.379 28.7782C62.3498 29.0406 62.3344 29.3043 62.3328 29.5683L62.3282 30.1735ZM206.657 28.404C206.577 27.9545 206.45 27.5147 206.278 27.0919L206.717 26.9118C206.901 27.3587 207.038 27.823 207.128 28.2978L206.657 28.404ZM62.6793 27.4431L62.2173 27.2906C62.3756 26.827 62.5815 26.3811 62.8318 25.96L63.2384 26.2003C63.0108 26.598 62.8235 27.0174 62.6793 27.4523V27.4431ZM205.636 25.8723C205.381 25.4916 205.087 25.1386 204.758 24.8189L205.091 24.4816C205.437 24.8245 205.747 25.2023 206.015 25.6089L205.636 25.8723ZM64.0699 25.0915L63.7188 24.7727C64.0489 24.4092 64.4159 24.081 64.8138 23.7933L65.0956 24.1813C64.7223 24.4543 64.3785 24.7655 64.0699 25.11V25.0915ZM203.682 23.9688C203.298 23.7185 202.887 23.5124 202.457 23.3544L202.628 22.8924C203.086 23.0687 203.526 23.29 203.94 23.553L203.682 23.9688ZM66.2829 23.5068L66.0889 23.0725C66.5336 22.8709 66.9981 22.7161 67.4749 22.6105L67.5719 23.0725C67.1278 23.1746 66.6958 23.3232 66.2829 23.5161V23.5068ZM201.136 23.0125C200.804 22.9626 200.469 22.9379 200.134 22.9386H199.755V22.4766H200.134C200.492 22.4765 200.851 22.5043 201.205 22.5597L201.136 23.0125ZM198.332 22.9386H196.909V22.4766H198.332V22.9386ZM195.486 22.9386H194.068V22.4766H195.486V22.9386ZM192.645 22.9386H191.222V22.4766H192.654L192.645 22.9386ZM189.799 22.9386H188.38V22.4766H189.799V22.9386ZM186.957 22.9386H185.534V22.4766H186.957V22.9386ZM184.111 22.9386H182.693V22.4766H184.111V22.9386ZM181.27 22.9386H179.847V22.4766H181.27V22.9386ZM178.424 22.9386H177.006V22.4766H178.424V22.9386ZM175.583 22.9386H174.174V22.4766H175.597L175.583 22.9386ZM172.737 22.9386H171.319V22.4766H172.737V22.9386ZM169.896 22.9386H168.473V22.4766H169.896V22.9386ZM167.05 22.9386H165.631V22.4766H167.05V22.9386ZM164.208 22.9386H162.785V22.4766H164.208V22.9386ZM161.363 22.9386H159.944V22.4766H161.363V22.9386ZM158.521 22.9386H157.08V22.4766H158.503L158.521 22.9386ZM155.675 22.9386H154.257V22.4766H155.694L155.675 22.9386ZM152.834 22.9386H151.411V22.4766H152.834V22.9386ZM149.988 22.9386H148.565V22.4766H149.988V22.9386ZM147.147 22.9386H145.724V22.4766H147.147V22.9386ZM144.301 22.9386H142.878V22.4766H144.301V22.9386ZM141.46 22.9386H140.037V22.4766H141.46V22.9386ZM138.614 22.9386H137.214V22.4766H138.6L138.614 22.9386ZM135.772 22.9386H134.349V22.4766H135.772V22.9386ZM132.926 22.9386H131.503V22.4766H132.926V22.9386ZM130.085 22.9386H128.662V22.4766H130.085V22.9386ZM127.239 22.9386H125.816V22.4766H127.239V22.9386ZM124.398 22.9386H122.975V22.4766H124.398V22.9386ZM121.552 22.9386H120.12V22.4766H121.543L121.552 22.9386ZM118.711 22.9386H117.288V22.4766H118.734L118.711 22.9386ZM115.865 22.9386H114.442V22.4766H115.865V22.9386ZM113.023 22.9386H111.601V22.4766H113.023V22.9386ZM110.178 22.9386H108.755V22.4766H110.178V22.9386ZM107.336 22.9386H105.913V22.4766H107.336V22.9386ZM104.49 22.9386H103.067V22.4766H104.49V22.9386ZM101.649 22.9386H100.226V22.4766H101.64L101.649 22.9386ZM98.8031 22.9386H97.3801V22.4766H98.8031V22.9386ZM95.9572 22.9386H94.5389V22.4766H95.9572V22.9386ZM93.1159 22.9386H91.6929V22.4766H93.1159V22.9386ZM90.27 22.9386H88.8516V22.4766H90.27V22.9386ZM87.4287 22.9386H86.0057V22.4766H87.4287V22.9386ZM84.5828 22.9386H83.1598V22.4766H84.5781L84.5828 22.9386ZM81.7414 22.9386H80.3185V22.4766H81.7414V22.9386ZM78.8955 22.9386H77.4772V22.4766H78.8955V22.9386ZM76.0542 22.9386H74.6313V22.4766H76.0542V22.9386ZM73.2083 22.9386H71.79V22.4766H73.2083V22.9386ZM70.367 22.9386H68.9579V22.4766H70.3809L70.367 22.9386Z" fill="#F5F5F5"/>
<path d="M144.195 8.21436H32.0258C28.8823 8.21436 26.334 10.7627 26.334 13.9062V83.0122C26.334 86.1557 28.8823 88.704 32.0258 88.704H144.195C147.338 88.704 149.887 86.1557 149.887 83.0122V13.9062C149.887 10.7627 147.338 8.21436 144.195 8.21436Z" fill="#F5F5F5"/>
<path d="M144.195 8.21436H32.0258C30.5174 8.21802 29.0718 8.81887 28.0051 9.8855C26.9385 10.9521 26.3376 12.3978 26.334 13.9062H149.887C149.883 12.3978 149.282 10.9521 148.216 9.8855C147.149 8.81887 145.703 8.21802 144.195 8.21436V8.21436Z" fill="#EBEBEB"/>
<path d="M55.1167 17.9673H33.9248V23.0262H55.1167V17.9673Z" fill="white"/>
<path d="M90.7971 17.9673H58.4756V23.0262H90.7971V17.9673Z" fill="white"/>
<path d="M64.6292 26.3848H37.2881V31.4437H64.6292V26.3848Z" fill="white"/>
<path d="M109.693 26.3848H67.9878V31.4437H109.693V26.3848Z" fill="white"/>
<path d="M90.7971 34.8071H58.4756V39.866H90.7971V34.8071Z" fill="white"/>
<path d="M71.3514 43.2295H44.0103V48.2884H71.3514V43.2295Z" fill="white"/>
<path d="M116.419 43.2295H74.7144V48.2884H116.419V43.2295Z" fill="white"/>
<path d="M68.5655 76.9185H47.3735V81.9774H68.5655V76.9185Z" fill="white"/>
<path d="M104.245 76.9185H71.9238V81.9774H104.245V76.9185Z" fill="white"/>
<path d="M78.0736 68.4961H50.7324V73.555H78.0736V68.4961Z" fill="white"/>
<path d="M123.141 68.4961H81.4365V73.555H123.141V68.4961Z" fill="white"/>
<path d="M58.4755 51.6519H44.0103V56.7108H58.4755V51.6519Z" fill="white"/>
<path d="M103.544 51.6519H61.8389V56.7108H103.544V51.6519Z" fill="white"/>
<path d="M140.032 11.0601C140.032 11.4046 139.93 11.7413 139.739 12.0278C139.547 12.3142 139.275 12.5374 138.957 12.6693C138.639 12.8011 138.289 12.8356 137.951 12.7684C137.613 12.7012 137.303 12.5353 137.059 12.2917C136.815 12.0481 136.65 11.7378 136.582 11.3999C136.515 11.062 136.55 10.7118 136.681 10.3936C136.813 10.0753 137.036 9.80329 137.323 9.6119C137.609 9.42052 137.946 9.31837 138.291 9.31837C138.519 9.31776 138.746 9.36239 138.958 9.44971C139.169 9.53702 139.362 9.66529 139.524 9.82715C139.685 9.98901 139.814 10.1813 139.901 10.3929C139.988 10.6044 140.033 10.8312 140.032 11.0601V11.0601Z" fill="white"/>
<path d="M133.31 11.0601C133.31 11.4046 133.208 11.7413 133.017 12.0278C132.825 12.3142 132.553 12.5374 132.235 12.6693C131.917 12.8011 131.566 12.8356 131.229 12.7684C130.891 12.7012 130.58 12.5353 130.337 12.2917C130.093 12.0481 129.927 11.7378 129.86 11.3999C129.793 11.062 129.827 10.7118 129.959 10.3936C130.091 10.0753 130.314 9.80329 130.601 9.6119C130.887 9.42052 131.224 9.31837 131.568 9.31837C131.797 9.31776 132.024 9.36239 132.236 9.44971C132.447 9.53702 132.64 9.66529 132.801 9.82715C132.963 9.98901 133.091 10.1813 133.179 10.3929C133.266 10.6044 133.311 10.8312 133.31 11.0601V11.0601Z" fill="white"/>
<path d="M124.846 12.8018C125.808 12.8018 126.588 12.022 126.588 11.0601C126.588 10.0982 125.808 9.31836 124.846 9.31836C123.884 9.31836 123.104 10.0982 123.104 11.0601C123.104 12.022 123.884 12.8018 124.846 12.8018Z" fill="white"/>
<path d="M198.337 18.7157C198.329 17.2821 197.97 15.8721 197.292 14.6091C196.614 13.3461 195.636 12.2685 194.445 11.4704C193.254 10.6723 191.886 10.1781 190.46 10.0309C189.034 9.88372 187.593 10.0881 186.265 10.6261C185.296 8.65111 183.739 7.02537 181.807 5.9732C179.875 4.92102 177.664 4.49426 175.48 4.7518C173.295 5.00935 171.245 5.93849 169.611 7.41105C167.976 8.8836 166.84 10.827 166.357 12.973C163.987 13.1239 161.769 14.1914 160.173 15.9494C158.576 17.7073 157.727 20.0177 157.804 22.3911C157.882 24.7645 158.88 27.0145 160.588 28.6646C162.295 30.3147 164.578 31.2353 166.953 31.2313H196.031C197.555 31.2469 199.035 30.7243 200.21 29.7556C201.386 28.7869 202.182 27.4342 202.459 25.9359C202.735 24.4377 202.473 22.8901 201.72 21.5658C200.967 20.2416 199.77 19.2257 198.341 18.6972L198.337 18.7157Z" fill="#F5F5F5"/>
<path d="M182.203 21.3814L174.724 13.9062L167.249 21.3814H171.236V39.806H178.216V21.3814H182.203Z" fill="#EBEBEB"/>
<path d="M177.029 43.1233L184.504 50.6031L191.984 43.1233H187.997V24.6987H181.016V43.1233H177.029Z" fill="#EBEBEB"/>
<path d="M143.599 36.8306V87.2302H98.9556V24.9341H131.698L143.599 36.8306Z" fill="#1B97FF"/>
<path opacity="0.8" d="M143.599 36.8306V87.2302H98.9556V24.9341H131.698L143.599 36.8306Z" fill="white"/>
<path opacity="0.2" d="M143.599 58.5957H98.9556V61.6403H143.599V58.5957Z" fill="#1B97FF"/>
<path d="M143.599 36.8306H131.698V24.9341L143.599 36.8306Z" fill="#1B97FF"/>
<path d="M131.009 127.276H98.563C98.563 127.276 100.6 153.994 94.6313 164.823H134.936C128.972 153.994 131.009 127.276 131.009 127.276Z" fill="#1B97FF"/>
<path opacity="0.2" d="M131.642 153.296C129.928 141.418 131.009 127.276 131.009 127.276H98.5626C98.5626 127.276 99.5328 140.009 98.1699 151.457L131.642 153.296Z" fill="black"/>
<path d="M139.621 163.885H89.9513C89.5105 163.886 89.0882 164.062 88.7766 164.374C88.4649 164.685 88.2893 165.108 88.2881 165.548H141.284C141.283 165.108 141.107 164.685 140.796 164.374C140.484 164.062 140.062 163.886 139.621 163.885V163.885Z" fill="#1B97FF"/>
<path d="M186.431 112.631H185.955V115.883H186.431V112.631Z" fill="#1B97FF"/>
<path d="M186.431 100.374H185.955V109.697H186.431V100.374Z" fill="#1B97FF"/>
<path d="M181.496 60.8823H48.0754C46.2715 60.8823 44.8091 62.3447 44.8091 64.1487V144.948C44.8091 146.752 46.2715 148.214 48.0754 148.214H181.496C183.3 148.214 184.763 146.752 184.763 144.948V64.1487C184.763 62.3447 183.3 60.8823 181.496 60.8823Z" fill="#1B97FF"/>
<path d="M180.207 62.9795H49.3598C47.9845 62.9795 46.8696 64.0944 46.8696 65.4697V124.786C46.8696 126.161 47.9845 127.276 49.3598 127.276H180.207C181.583 127.276 182.698 126.161 182.698 124.786V65.4697C182.698 64.0944 181.583 62.9795 180.207 62.9795Z" fill="white"/>
<path opacity="0.9" d="M44.814 129.36V144.938C44.8164 145.804 45.1613 146.633 45.7733 147.245C46.3854 147.857 47.2148 148.202 48.0803 148.205H181.497C182.362 148.202 183.192 147.857 183.804 147.245C184.416 146.633 184.761 145.804 184.763 144.938V129.36H44.814Z" fill="white"/>
<path opacity="0.5" d="M114.783 141.94C116.521 141.94 117.93 140.531 117.93 138.794C117.93 137.056 116.521 135.647 114.783 135.647C113.046 135.647 111.637 137.056 111.637 138.794C111.637 140.531 113.046 141.94 114.783 141.94Z" fill="#1B97FF"/>
<path opacity="0.4" d="M81.9448 51.3511V96.835H127.429L81.9448 51.3511ZM91.9379 75.486L103.294 86.8558H91.9379V75.486Z" fill="#1B97FF"/>
<path d="M134.067 104.088V113.449C134.071 114.962 134.674 116.413 135.744 117.484C136.814 118.555 138.264 119.159 139.778 119.163H172.788C174.302 119.159 175.753 118.555 176.823 117.484C177.894 116.413 178.498 114.963 178.503 113.449V80.4432C178.498 78.9295 177.894 77.4792 176.823 76.4092C175.752 75.3392 174.301 74.7366 172.788 74.7329H139.778C138.264 74.7366 136.814 75.3394 135.744 76.4095C134.674 77.4796 134.071 78.9299 134.067 80.4432V90.7042" fill="white"/>
<path d="M172.788 119.399H170.94V118.937H172.838V119.399H172.788ZM169.055 119.399H167.151V118.937H169.055V119.399ZM165.243 119.399H163.34V118.937H165.243V119.399ZM161.436 119.399H159.528V118.937H161.432L161.436 119.399ZM157.629 119.399H155.726V118.937H157.629V119.399ZM153.823 119.399H151.914V118.937H153.823V119.399ZM150.011 119.399H148.108V118.937H150.011V119.399ZM146.204 119.399H144.301V118.937H146.204V119.399ZM142.397 119.399H140.489V118.937H142.397V119.399ZM138.549 119.27C137.896 119.133 137.271 118.886 136.701 118.54L136.95 118.133C137.47 118.451 138.04 118.678 138.637 118.803L138.549 119.27ZM174.807 119.043L174.645 118.581C175.217 118.372 175.751 118.069 176.225 117.685L176.525 118.055C176.011 118.479 175.428 118.814 174.802 119.043H174.807ZM135.218 117.256C134.792 116.747 134.455 116.171 134.22 115.551L134.682 115.384C134.902 115.954 135.214 116.483 135.606 116.951L135.218 117.256ZM177.833 116.595L177.431 116.341C177.755 115.825 177.989 115.258 178.124 114.664L178.586 114.77C178.438 115.417 178.182 116.034 177.828 116.595H177.833ZM133.836 113.615C133.836 113.56 133.836 113.504 133.836 113.449V111.707H134.298V113.601L133.836 113.615ZM178.738 112.825H178.276V110.922H178.738V112.825ZM134.308 109.799H133.846V107.895H134.308V109.799ZM178.734 109.032H178.272V107.129H178.734V109.032ZM134.303 106.006H133.841V104.089H134.303V106.006ZM178.734 105.22H178.272V103.303H178.734V105.22ZM178.734 101.414H178.272V99.5101H178.734V101.414ZM178.734 97.6067H178.272V95.7032H178.734V97.6067ZM178.734 93.7998H178.272V91.8917H178.734V93.7998ZM134.303 90.4364H133.841V88.5284H134.303V90.4364ZM178.734 89.9744H178.272V88.071H178.734V89.9744ZM134.303 86.6111H133.841V84.7076H134.303V86.6111ZM178.734 86.1491H178.272V84.2456H178.734V86.1491ZM134.303 82.7857H133.841V80.8823H134.303V82.7857ZM178.734 82.3237H178.272V80.4157H178.734V82.3237ZM134.479 79.0343L134.017 78.9142C134.183 78.2716 134.458 77.6622 134.83 77.1124L135.222 77.3803C134.879 77.8969 134.627 78.469 134.479 79.0712V79.0343ZM177.957 78.6277C177.76 78.0502 177.465 77.511 177.084 77.0338L177.458 76.7381C177.87 77.2585 178.192 77.8441 178.41 78.4706L177.957 78.6277ZM136.47 76.0544L136.179 75.6755C136.706 75.2733 137.296 74.961 137.925 74.7515L138.073 75.2135C137.494 75.4159 136.952 75.7125 136.47 76.0913V76.0544ZM175.74 75.8095C175.229 75.4769 174.665 75.2332 174.072 75.0888L174.188 74.6268C174.841 74.7934 175.461 75.0699 176.022 75.4445L175.74 75.8095ZM172.238 74.9317H170.339V74.4697H172.242L172.238 74.9317ZM168.431 74.9317H166.528V74.4697H168.431V74.9317ZM164.624 74.9317H162.716V74.4697H164.624V74.9317ZM160.813 74.9317H158.928V74.4697H160.831L160.813 74.9317ZM157.006 74.9317H155.102V74.4697H157.006V74.9317ZM153.199 74.9317H151.291V74.4697H153.199V74.9317ZM149.387 74.9317H147.484V74.4697H149.387V74.9317ZM145.58 74.9317H143.682V74.4697H145.585L145.58 74.9317ZM141.774 74.9317H139.87V74.4697H141.774V74.9317Z" fill="#1B97FF"/>
<path d="M134.146 97.8838V92.0811C133.443 93.5764 133.071 95.2059 133.056 96.8581L133.836 97.6389V98.1979L132.677 99.3576C132.681 99.2815 132.669 99.2055 132.643 99.1341C132.617 99.0626 132.577 98.9972 132.524 98.9418C132.247 98.6599 131.67 98.7847 131.24 99.2143C130.81 99.644 130.686 100.217 130.967 100.499C131.249 100.781 131.822 100.656 132.252 100.226L133.836 98.6415V101.178C133.836 101.788 134.155 102.282 134.548 102.282C134.941 102.282 135.264 101.788 135.264 101.178C135.264 100.568 134.945 100.078 134.548 100.078C134.472 100.081 134.398 100.099 134.33 100.131C134.261 100.164 134.2 100.21 134.151 100.268V98.3412L134.747 97.7452H135.828C136.985 96.5634 137.872 95.1449 138.429 93.5872L134.146 97.8838ZM132.104 100.083C131.799 100.392 131.383 100.48 131.18 100.282C130.977 100.083 131.069 99.6671 131.379 99.3576C131.688 99.048 132.099 98.9602 132.303 99.1589C132.506 99.3576 132.418 99.7918 132.104 100.083ZM134.543 100.374C134.83 100.374 135.061 100.725 135.061 101.164C135.061 101.603 134.83 101.959 134.543 101.959C134.257 101.959 134.031 101.603 134.031 101.164C134.031 100.725 134.262 100.374 134.543 100.374V100.374Z" fill="#1B97FF"/>
<path d="M116.253 108.538C115.729 108.009 115.436 107.295 115.436 106.551C115.436 105.807 115.729 105.093 116.253 104.564L118.036 102.781C118.564 102.255 119.28 101.959 120.025 101.959C120.771 101.959 121.486 102.255 122.014 102.781C122.54 103.308 122.835 104.023 122.835 104.768C122.835 105.512 122.54 106.227 122.014 106.754L120.231 108.538C119.703 109.064 118.987 109.359 118.242 109.359C117.496 109.359 116.781 109.064 116.253 108.538Z" fill="#263238"/>
<path d="M107.235 120.928L118.175 109.988L114.807 106.62L103.867 117.56C103.739 117.688 103.654 117.852 103.624 118.03C103.594 118.208 103.621 118.391 103.7 118.554C103.761 118.671 103.792 118.801 103.792 118.932C103.792 119.064 103.761 119.194 103.7 119.311C103.565 119.559 103.513 119.844 103.553 120.124C103.593 120.404 103.722 120.664 103.922 120.864C104.123 121.063 104.383 121.193 104.663 121.234C104.944 121.275 105.23 121.224 105.479 121.09C105.596 121.03 105.726 120.998 105.858 120.998C105.99 120.998 106.12 121.03 106.237 121.09V121.09C106.399 121.172 106.583 121.2 106.762 121.171C106.941 121.142 107.107 121.057 107.235 120.928V120.928Z" fill="white"/>
<path d="M104.873 121.723C104.564 121.723 104.259 121.643 103.99 121.491C103.72 121.338 103.495 121.118 103.336 120.852C103.177 120.586 103.09 120.283 103.083 119.973C103.077 119.664 103.151 119.358 103.298 119.085C103.324 119.036 103.337 118.981 103.337 118.926C103.337 118.87 103.324 118.815 103.298 118.766C103.174 118.515 103.132 118.231 103.178 117.954C103.223 117.677 103.354 117.422 103.552 117.223L114.492 106.283C114.536 106.237 114.588 106.2 114.646 106.175C114.704 106.15 114.766 106.137 114.83 106.137C114.893 106.137 114.955 106.15 115.013 106.175C115.071 106.2 115.124 106.237 115.167 106.283L118.53 109.651C118.576 109.694 118.613 109.746 118.638 109.804C118.663 109.862 118.676 109.925 118.676 109.988C118.676 110.051 118.663 110.114 118.638 110.172C118.613 110.23 118.576 110.282 118.53 110.325L107.59 121.266C107.393 121.464 107.138 121.595 106.862 121.641C106.586 121.686 106.302 121.644 106.052 121.52C106.002 121.495 105.947 121.482 105.892 121.482C105.837 121.482 105.782 121.495 105.733 121.52C105.468 121.66 105.173 121.73 104.873 121.723ZM114.82 107.295L104.217 117.898C104.155 117.955 104.114 118.032 104.101 118.116C104.087 118.2 104.102 118.285 104.143 118.36C104.239 118.545 104.289 118.75 104.289 118.958C104.289 119.166 104.239 119.371 104.143 119.556C104.059 119.714 104.027 119.896 104.053 120.073C104.08 120.251 104.162 120.415 104.289 120.542C104.416 120.669 104.581 120.752 104.758 120.778C104.936 120.804 105.117 120.773 105.275 120.688C105.46 120.593 105.665 120.543 105.874 120.543C106.082 120.543 106.287 120.593 106.472 120.688C106.547 120.728 106.632 120.742 106.715 120.729C106.799 120.715 106.875 120.675 106.934 120.614L117.56 110.011L114.82 107.295Z" fill="#1B97FF"/>
<path d="M113.915 104.819C114.175 104.56 114.526 104.416 114.892 104.416C115.258 104.416 115.609 104.56 115.869 104.819L119.976 108.926C120.233 109.185 120.377 109.536 120.377 109.901C120.377 110.266 120.233 110.616 119.976 110.875V110.875C119.717 111.132 119.367 111.276 119.002 111.276C118.636 111.276 118.286 111.132 118.027 110.875L113.915 106.768C113.658 106.509 113.514 106.158 113.514 105.793C113.514 105.428 113.658 105.078 113.915 104.819Z" fill="#263238"/>
<path d="M166.609 60.9509L159.118 53.4601C158.798 53.1407 158.281 53.1407 157.961 53.4601L154.557 56.8641C154.238 57.1835 154.238 57.7012 154.557 58.0206L162.048 65.5114C162.367 65.8308 162.885 65.8308 163.205 65.5114L166.609 62.1074C166.928 61.788 166.928 61.2703 166.609 60.9509Z" fill="#263238"/>
<path d="M178.757 41.3165L163.853 56.2206L161.339 53.7027C163.515 51.5267 162.263 46.4493 162.263 46.4493L166.398 42.3144C173.088 41.3904 187.188 31.3789 187.188 31.3789L187.65 31.8409L178.794 40.6559C178.747 40.6964 178.709 40.7458 178.682 40.8012C178.655 40.8566 178.639 40.9168 178.636 40.9784C178.632 41.04 178.641 41.1016 178.662 41.1597C178.683 41.2178 178.715 41.2711 178.757 41.3165Z" fill="#1B97FF"/>
<path d="M177.755 53.6845L173.62 57.8425C173.62 57.8425 168.538 56.5766 166.366 58.7665L163.853 56.2532L178.757 41.3491C178.803 41.39 178.858 41.4211 178.916 41.4408C178.975 41.4604 179.037 41.468 179.098 41.4633C179.16 41.4586 179.22 41.4415 179.275 41.4132C179.33 41.3848 179.378 41.3458 179.418 41.2983L188.251 32.4648L188.713 32.9268C188.713 32.9268 178.692 46.9994 177.755 53.6845Z" fill="#1B97FF"/>
<path opacity="0.2" d="M177.755 53.6845L173.62 57.8425C173.62 57.8425 168.538 56.5766 166.366 58.7665L163.853 56.2532L178.757 41.3491C178.803 41.39 178.858 41.4211 178.916 41.4408C178.975 41.4604 179.037 41.468 179.098 41.4633C179.16 41.4586 179.22 41.4415 179.275 41.4132C179.33 41.3848 179.378 41.3458 179.418 41.2983L188.251 32.4648L188.713 32.9268C188.713 32.9268 178.692 46.9994 177.755 53.6845Z" fill="white"/>
<path d="M190.344 62.3188L190.076 62.0509C192.233 59.9448 193.95 57.4316 195.128 54.6571C196.306 51.8825 196.922 48.9018 196.94 45.8875C196.957 42.8732 196.377 39.8854 195.232 37.0971C194.086 34.3088 192.399 31.7756 190.268 29.6441C188.136 27.5127 185.603 25.8254 182.815 24.6801C180.026 23.5348 177.038 22.9542 174.024 22.972C171.01 22.9899 168.029 23.6057 165.255 24.7839C162.48 25.962 159.967 27.6791 157.861 29.8356L157.593 29.5677C159.734 27.3771 162.289 25.6333 165.109 24.437C167.93 23.2407 170.959 22.6158 174.023 22.5985C177.086 22.5812 180.122 23.1718 182.956 24.3361C185.789 25.5005 188.364 27.2154 190.53 29.3816C192.696 31.5477 194.411 34.1222 195.575 36.9557C196.74 39.7893 197.33 42.8257 197.313 45.8891C197.296 48.9524 196.671 51.982 195.475 54.8022C194.278 57.6224 192.534 60.1773 190.344 62.3188V62.3188Z" fill="#1B97FF"/>
<path d="M169.779 8.98309L169.511 9.25098L210.677 50.4163L210.944 50.1485L169.779 8.98309Z" fill="#1B97FF"/>
<path d="M191.927 29.6983L190.229 27.9995L188.53 29.6983L190.229 31.397L191.927 29.6983Z" fill="#1B97FF"/>
<path d="M190.229 31.7069L188.224 29.7019L190.229 27.6968L192.238 29.7019L190.229 31.7069ZM188.843 29.7019L190.229 31.0879L191.615 29.7019L190.229 28.3159L188.843 29.7019Z" fill="#1B97FF"/>
<path d="M159.441 29.6997L157.743 28.001L156.044 29.6997L157.743 31.3985L159.441 29.6997Z" fill="white"/>
<path d="M157.745 31.7069L155.74 29.7019L157.745 27.6968L159.75 29.7019L157.745 31.7069ZM156.359 29.7019L157.745 31.0879L159.131 29.7019L157.745 28.3159L156.359 29.7019Z" fill="#1B97FF"/>
<path d="M192.002 62.2534L190.303 60.5547L188.604 62.2534L190.303 63.9522L192.002 62.2534Z" fill="white"/>
<path d="M190.302 64.2597L188.297 62.2546L190.302 60.2495L192.308 62.2546L190.302 64.2597ZM188.916 62.2546L190.302 63.6406L191.688 62.2546L190.302 60.8686L188.916 62.2546Z" fill="#1B97FF"/>
<path d="M211.734 51.2031C211.566 51.3709 211.352 51.4851 211.119 51.5313C210.886 51.5775 210.645 51.5536 210.426 51.4626C210.206 51.3717 210.019 51.2177 209.887 51.0202C209.755 50.8227 209.685 50.5906 209.685 50.3531C209.685 50.1156 209.755 49.8834 209.887 49.6859C210.019 49.4884 210.206 49.3345 210.426 49.2435C210.645 49.1525 210.886 49.1286 211.119 49.1748C211.352 49.221 211.566 49.3352 211.734 49.503C211.959 49.7289 212.085 50.0345 212.085 50.3531C212.085 50.6716 211.959 50.9772 211.734 51.2031V51.2031Z" fill="white"/>
<path d="M210.885 51.7717C210.557 51.7719 210.239 51.6583 209.985 51.4503C209.731 51.2422 209.557 50.9526 209.493 50.6308C209.429 50.309 209.478 49.9749 209.633 49.6854C209.788 49.3959 210.038 49.169 210.341 49.0433C210.644 48.9176 210.981 48.9008 211.295 48.996C211.609 49.0911 211.881 49.2922 212.063 49.5649C212.246 49.8377 212.328 50.1653 212.296 50.4919C212.264 50.8185 212.119 51.1238 211.887 51.3559C211.756 51.4881 211.6 51.5929 211.428 51.6642C211.256 51.7356 211.071 51.7722 210.885 51.7717V51.7717ZM210.885 49.3693C210.657 49.3702 210.437 49.4499 210.262 49.5949C210.086 49.7399 209.966 49.9413 209.923 50.1647C209.879 50.3881 209.914 50.6197 210.022 50.8201C210.13 51.0205 210.304 51.1773 210.515 51.2637C210.725 51.3502 210.959 51.361 211.177 51.2942C211.395 51.2275 211.582 51.0874 211.708 50.8978C211.834 50.7082 211.89 50.4808 211.868 50.2543C211.845 50.0278 211.744 49.8163 211.583 49.6558C211.397 49.4723 211.146 49.3694 210.885 49.3693V49.3693Z" fill="#1B97FF"/>
<path d="M170.478 9.96499C170.31 10.1334 170.096 10.2483 169.863 10.295C169.63 10.3417 169.388 10.3182 169.168 10.2274C168.949 10.1366 168.761 9.98267 168.629 9.78504C168.496 9.58741 168.426 9.35499 168.426 9.11722C168.426 8.87945 168.496 8.64703 168.629 8.44939C168.761 8.25176 168.949 8.0978 169.168 8.00702C169.388 7.91624 169.63 7.89271 169.863 7.93943C170.096 7.98615 170.31 8.101 170.478 8.26945C170.702 8.49458 170.828 8.79943 170.828 9.11722C170.828 9.43501 170.702 9.73985 170.478 9.96499V9.96499Z" fill="white"/>
<path d="M169.646 10.5335C169.366 10.5335 169.092 10.4503 168.858 10.2944C168.625 10.1386 168.443 9.91707 168.336 9.6579C168.229 9.39873 168.201 9.11355 168.255 8.83842C168.31 8.56329 168.445 8.31056 168.643 8.1122C168.842 7.91384 169.095 7.77876 169.37 7.72403C169.645 7.6693 169.93 7.69739 170.189 7.80474C170.448 7.9121 170.67 8.09389 170.826 8.32713C170.982 8.56038 171.065 8.8346 171.065 9.11512C171.066 9.30161 171.03 9.48652 170.959 9.65879C170.888 9.83105 170.782 9.98713 170.649 10.1177V10.1177C170.518 10.2509 170.362 10.3563 170.19 10.4278C170.018 10.4992 169.833 10.5352 169.646 10.5335ZM169.646 8.13106C169.517 8.13104 169.39 8.15678 169.271 8.20675C169.152 8.25673 169.044 8.32995 168.953 8.42212C168.796 8.61076 168.715 8.85141 168.726 9.09679C168.737 9.34216 168.84 9.57452 169.013 9.7482C169.187 9.92189 169.419 10.0243 169.665 10.0354C169.91 10.0465 170.151 9.96544 170.339 9.80812V9.80812C170.431 9.71677 170.505 9.6081 170.555 9.48837C170.605 9.36865 170.63 9.24023 170.63 9.1105C170.628 8.84946 170.523 8.59987 170.338 8.41572C170.153 8.23156 169.903 8.12764 169.642 8.12644L169.646 8.13106Z" fill="#1B97FF"/>
<path d="M75.8416 33.4531H57.4355V108.985H75.8416V33.4531Z" fill="#1B97FF"/>
<path opacity="0.7" d="M75.8416 33.4531H57.4355V108.985H75.8416V33.4531Z" fill="white"/>
<path opacity="0.3" d="M74.4697 37.0522H58.8125V44.2456H74.4697V37.0522Z" fill="#263238"/>
<path opacity="0.416667" d="M74.4697 45.7515H58.8125V52.9448H74.4697V45.7515Z" fill="#263238"/>
<path opacity="0.533333" d="M74.4697 54.4507H58.8125V61.644H74.4697V54.4507Z" fill="#263238"/>
<path opacity="0.65" d="M74.4697 63.1553H58.8125V70.3486H74.4697V63.1553Z" fill="#263238"/>
<path opacity="0.766667" d="M74.4697 71.8545H58.8125V79.0478H74.4697V71.8545Z" fill="#263238"/>
<path opacity="0.883333" d="M74.4697 80.5537H58.8125V87.747H74.4697V80.5537Z" fill="#263238"/>
<path d="M74.4697 89.2583H58.8125V96.4516H74.4697V89.2583Z" fill="#263238"/>
<path d="M62.8639 37.9463L44.7319 41.1108L57.7181 115.518L75.8501 112.354L62.8639 37.9463Z" fill="#1B97FF"/>
<path opacity="0.8" d="M62.8639 37.9463L44.7319 41.1108L57.7181 115.518L75.8501 112.354L62.8639 37.9463Z" fill="white"/>
<path d="M62.1296 41.7236L46.7056 44.4155L47.9423 51.5018L63.3663 48.8098L62.1296 41.7236Z" fill="#1B97FF"/>
<path d="M63.6276 50.2968L48.2036 52.9888L49.4404 60.075L64.8644 57.3831L63.6276 50.2968Z" fill="#1B97FF"/>
<path d="M65.1252 58.8701L49.7012 61.562L50.9379 68.6482L66.362 65.9563L65.1252 58.8701Z" fill="#1B97FF"/>
<path d="M66.6179 67.4394L51.1938 70.1313L52.4306 77.2176L67.8546 74.5257L66.6179 67.4394Z" fill="#1B97FF"/>
<path d="M68.1159 76.0127L52.6919 78.7046L53.9286 85.7908L69.3527 83.0989L68.1159 76.0127Z" fill="#1B97FF"/>
<path d="M69.7428 85.2611L54.2422 87.9229L55.4651 95.0443L70.9657 92.3825L69.7428 85.2611Z" fill="#1B97FF"/>
<path d="M71.1062 93.1504L55.6821 95.8423L56.9189 102.929L72.3429 100.237L71.1062 93.1504Z" fill="#1B97FF"/>
<path opacity="0.05" d="M62.1296 41.7236L46.7056 44.4155L47.9423 51.5018L63.3663 48.8098L62.1296 41.7236Z" fill="black"/>
<path opacity="0.1" d="M63.6276 50.2968L48.2036 52.9888L49.4404 60.075L64.8644 57.3831L63.6276 50.2968Z" fill="black"/>
<path opacity="0.2" d="M65.1252 58.8701L49.7012 61.562L50.9379 68.6482L66.362 65.9563L65.1252 58.8701Z" fill="black"/>
<path opacity="0.3" d="M66.6179 67.4394L51.1938 70.1313L52.4306 77.2176L67.8546 74.5257L66.6179 67.4394Z" fill="black"/>
<path opacity="0.4" d="M68.1159 76.0127L52.6919 78.7046L53.9286 85.7908L69.3527 83.0989L68.1159 76.0127Z" fill="black"/>
<path opacity="0.5" d="M69.7428 85.2611L54.2422 87.9229L55.4651 95.0443L70.9657 92.3825L69.7428 85.2611Z" fill="black"/>
<path opacity="0.6" d="M71.1062 93.1504L55.6821 95.8423L56.9189 102.929L72.3429 100.237L71.1062 93.1504Z" fill="black"/>
<path d="M50.1395 44.7081L32.8325 50.9731L58.5422 121.995L75.8492 115.73L50.1395 44.7081Z" fill="#1B97FF"/>
<path opacity="0.9" d="M50.1395 44.7081L32.8325 50.9731L58.5422 121.995L75.8492 115.73L50.1395 44.7081Z" fill="white"/>
<path d="M50.0724 48.5544L35.3501 53.8838L37.7986 60.6476L52.5208 55.3182L50.0724 48.5544Z" fill="#1B97FF"/>
<path d="M53.0362 56.737L38.314 62.0664L40.7624 68.8302L55.4847 63.5008L53.0362 56.737Z" fill="#1B97FF"/>
<path d="M55.9913 64.9206L41.269 70.25L43.7175 77.0138L58.4398 71.6844L55.9913 64.9206Z" fill="#1B97FF"/>
<path d="M58.9552 73.1032L44.2329 78.4326L46.6814 85.1964L61.4036 79.867L58.9552 73.1032Z" fill="#1B97FF"/>
<path d="M61.919 81.2805L47.1968 86.6099L49.6452 93.3737L64.3675 88.0443L61.919 81.2805Z" fill="#1B97FF"/>
<path d="M64.878 89.4631L50.1558 94.7925L52.6042 101.556L67.3265 96.2269L64.878 89.4631Z" fill="#1B97FF"/>
<path d="M67.8424 97.6452L53.1201 102.975L55.5686 109.738L70.2908 104.409L67.8424 97.6452Z" fill="#1B97FF"/>
<path opacity="0.6" d="M50.0724 48.5544L35.3501 53.8838L37.7986 60.6476L52.5208 55.3182L50.0724 48.5544Z" fill="white"/>
<path opacity="0.5" d="M53.0362 56.737L38.314 62.0664L40.7624 68.8302L55.4847 63.5008L53.0362 56.737Z" fill="white"/>
<path opacity="0.4" d="M55.9913 64.9206L41.269 70.25L43.7175 77.0138L58.4398 71.6844L55.9913 64.9206Z" fill="white"/>
<path opacity="0.3" d="M58.9552 73.1032L44.2329 78.4326L46.6814 85.1964L61.4036 79.867L58.9552 73.1032Z" fill="white"/>
<path opacity="0.2" d="M61.919 81.2805L47.1968 86.6099L49.6452 93.3737L64.3675 88.0443L61.919 81.2805Z" fill="white"/>
<path opacity="0.1" d="M64.878 89.4631L50.1558 94.7925L52.6042 101.556L67.3265 96.2269L64.878 89.4631Z" fill="white"/>
</svg>
