<svg width="43" height="51" viewBox="0 0 43 51" fill="none" xmlns="http://www.w3.org/2000/svg">
<path d="M34.5774 14.4321C38.5627 14.4321 41.7935 11.2014 41.7935 7.21606C41.7935 3.23074 38.5627 0 34.5774 0C30.5921 0 27.3613 3.23074 27.3613 7.21606C27.3613 11.2014 30.5921 14.4321 34.5774 14.4321Z" fill="#1B97FF"/>
<path d="M22.312 31.415C26.2973 31.415 29.5281 28.1843 29.5281 24.199C29.5281 20.2137 26.2973 16.9829 22.312 16.9829C18.3267 16.9829 15.0959 20.2137 15.0959 24.199C15.0959 28.1843 18.3267 31.415 22.312 31.415Z" fill="#1B97FF"/>
<path d="M7.21607 44.978C11.2014 44.978 14.4321 41.7473 14.4321 37.762C14.4321 33.7766 11.2014 30.5459 7.21607 30.5459C3.23074 30.5459 0 33.7766 0 37.762C0 41.7473 3.23074 44.978 7.21607 44.978Z" fill="#1B97FF"/>
<path d="M7.20972 50.8118V37.7222" stroke="#F7F8F3" stroke-width="2" stroke-miterlimit="10"/>
<path d="M7.20971 39.5732C8.23202 39.5732 9.06077 38.7445 9.06077 37.7222C9.06077 36.6998 8.23202 35.8711 7.20971 35.8711C6.18739 35.8711 5.35864 36.6998 5.35864 37.7222C5.35864 38.7445 6.18739 39.5732 7.20971 39.5732Z" fill="#F7F8F3"/>
<path d="M7.20957 45.7898C7.20957 45.7898 6.94514 40.1023 1.52417 40.7634L7.20957 45.7898Z" fill="#F7F8F3"/>
<path d="M34.582 50.9032V7.24219" stroke="#F7F8F3" stroke-width="2" stroke-miterlimit="10"/>
<path d="M34.582 9.07273C35.6043 9.07273 36.4331 8.24398 36.4331 7.22167C36.4331 6.19935 35.6043 5.37061 34.582 5.37061C33.5597 5.37061 32.731 6.19935 32.731 7.22167C32.731 8.24398 33.5597 9.07273 34.582 9.07273Z" fill="#F7F8F3"/>
<path d="M28.8965 40.6621C29.9188 40.6621 30.7475 39.8333 30.7475 38.811C30.7475 37.7887 29.9188 36.96 28.8965 36.96C27.8742 36.96 27.0454 37.7887 27.0454 38.811C27.0454 39.8333 27.8742 40.6621 28.8965 40.6621Z" fill="#F7F8F3"/>
<path d="M34.5819 16.677C34.5819 16.677 34.3175 10.9895 28.8965 11.6506L34.5819 16.677Z" fill="#F7F8F3"/>
<path d="M34.5819 32.8006C34.5819 32.8006 34.3175 27.1131 28.8965 27.7742L34.5819 32.8006Z" fill="#F7F8F3"/>
<path d="M34.5819 50.3949C34.5819 50.3949 35.7719 39.3399 28.8965 38.811" stroke="#F7F8F3" stroke-width="2" stroke-miterlimit="10"/>
<path d="M40.2683 40.6621C41.2906 40.6621 42.1194 39.8333 42.1194 38.811C42.1194 37.7887 41.2906 36.96 40.2683 36.96C39.246 36.96 38.4172 37.7887 38.4172 38.811C38.4172 39.8333 39.246 40.6621 40.2683 40.6621Z" fill="#F7F8F3"/>
<path d="M34.5828 50.3949C34.5828 50.3949 33.3929 39.3399 40.2682 38.811" stroke="#F7F8F3" stroke-width="2" stroke-miterlimit="10"/>
<path d="M40.3808 23.2983C41.4032 23.2983 42.2319 22.4696 42.2319 21.4473C42.2319 20.4249 41.4032 19.5962 40.3808 19.5962C39.3585 19.5962 38.5298 20.4249 38.5298 21.4473C38.5298 22.4696 39.3585 23.2983 40.3808 23.2983Z" fill="#F7F8F3"/>
<path d="M34.6956 32.4415C34.6956 32.4415 33.5057 21.9761 40.381 21.4473" stroke="#F7F8F3" stroke-width="2" stroke-miterlimit="10"/>
<path d="M22.3186 50.842V24.1909" stroke="#F7F8F3" stroke-width="2" stroke-miterlimit="10"/>
<path d="M22.3186 26.042C23.3409 26.042 24.1697 25.2132 24.1697 24.1909C24.1697 23.1686 23.3409 22.3398 22.3186 22.3398C21.2963 22.3398 20.4675 23.1686 20.4675 24.1909C20.4675 25.2132 21.2963 26.042 22.3186 26.042Z" fill="#F7F8F3"/>
<path d="M22.3187 31.7293C22.3187 31.7293 22.0543 26.0418 16.6333 26.7029L22.3187 31.7293Z" fill="#F7F8F3"/>
<path d="M22.3187 50.3332C22.3187 50.3332 23.5087 39.3961 16.6333 38.8672" stroke="#F7F8F3" stroke-width="2" stroke-miterlimit="10"/>
<path d="M16.633 40.7182C17.6554 40.7182 18.4841 39.8895 18.4841 38.8672C18.4841 37.8449 17.6554 37.0161 16.633 37.0161C15.6107 37.0161 14.782 37.8449 14.782 38.8672C14.782 39.8895 15.6107 40.7182 16.633 40.7182Z" fill="#F7F8F3"/>
</svg>
